<svg 
     xmlns="http://www.w3.org/2000/svg"
     viewBox="0 0 156.92 70.91"
>
     <defs>
          <style>
               .cls-1{fill:#0c3532;fill-rule:evenodd;}
          </style>
     </defs>
     <g 
          id="Layer_2"
          data-name="Layer 2"
     >
          <g 
               id="Layer_1-2"
               data-name="Layer 1"
          >
               <path 
               class="cls-1"
               d="M156.91,18.52a3.14,3.14,0,0,1-.38,1.27,3.42,3.42,0,0,1-.82,1,3.57,3.57,0,0,1-1.16.61,3.66,3.66,0,0,1-1.37.14l-9.79-.8-8,12.6-4.79-.4,5.7-12.79-11.92-1L123,21.25l-3.4-.28,1.9-4.23c-9.08-.22-23.36-1.67-28.77,1.08C77.55,25.54,48.36,70.91,48.36,70.91L0,10.74H17.62L48.36,51.47,70,21.74s11.84-18.18,38.87-11A84.81,84.81,0,0,0,121.27,13l-.78-3,3.41.28,1,2.3,11.92,1L133.32,0l4.79.4,5.82,13.74,9.8.81a3.46,3.46,0,0,1,1.32.37,3.41,3.41,0,0,1,1,.79,3.1,3.1,0,0,1,.65,1.11A3.15,3.15,0,0,1,156.91,18.52Z"
               />
          </g>
     </g>
</svg>